<?xml version="1.0" encoding="UTF-8"?>
<!DOCTYPE svg PUBLIC "-//W3C//DTD SVG 1.1//EN" "http://www.w3.org/Graphics/SVG/1.1/DTD/svg11.dtd">
<svg xmlns="http://www.w3.org/2000/svg" version="1.1" width="448px" height="382px" style="shape-rendering:geometricPrecision; text-rendering:geometricPrecision; image-rendering:optimizeQuality; fill-rule:evenodd; clip-rule:evenodd" xmlns:xlink="http://www.w3.org/1999/xlink">
<g><path style="opacity:1" fill="#fefefe" d="M -0.5,-0.5 C 148.833,-0.5 298.167,-0.5 447.5,-0.5C 447.5,126.833 447.5,254.167 447.5,381.5C 298.167,381.5 148.833,381.5 -0.5,381.5C -0.5,254.167 -0.5,126.833 -0.5,-0.5 Z"/></g>
<g><path style="opacity:1" fill="#56b0c9" d="M 146.5,23.5 C 202.167,23.5 257.833,23.5 313.5,23.5C 313.667,93.5008 313.5,163.501 313,233.5C 285.404,234.165 257.738,234.498 230,234.5C 202.262,234.498 174.596,234.165 147,233.5C 146.5,163.501 146.333,93.5008 146.5,23.5 Z"/></g>
<g><path style="opacity:1" fill="#fdfefe" d="M 151.5,28.5 C 203.833,28.5 256.167,28.5 308.5,28.5C 308.5,95.5 308.5,162.5 308.5,229.5C 256.167,229.5 203.833,229.5 151.5,229.5C 151.5,162.5 151.5,95.5 151.5,28.5 Z"/></g>
<g><path style="opacity:1" fill="#45aac5" d="M 265.5,42.5 C 265.5,43.8333 265.5,45.1667 265.5,46.5C 241.833,46.5 218.167,46.5 194.5,46.5C 194.5,45.1667 194.5,43.8333 194.5,42.5C 218.167,42.5 241.833,42.5 265.5,42.5 Z"/></g>
<g><path style="opacity:1" fill="#85c7da" d="M 265.5,42.5 C 266.451,43.9187 266.784,45.5853 266.5,47.5C 242.328,47.8309 218.328,47.4976 194.5,46.5C 218.167,46.5 241.833,46.5 265.5,46.5C 265.5,45.1667 265.5,43.8333 265.5,42.5 Z"/></g>
<g><path style="opacity:1" fill="#a8d7e4" d="M 158.5,70.5 C 175.325,69.5034 192.325,69.1701 209.5,69.5C 209.784,71.4147 209.451,73.0813 208.5,74.5C 208.5,73.1667 208.5,71.8333 208.5,70.5C 191.833,70.5 175.167,70.5 158.5,70.5 Z"/></g>
<g><path style="opacity:1" fill="#a7d6e4" d="M 298.5,70.5 C 286.5,70.5 274.5,70.5 262.5,70.5C 262.5,71.8333 262.5,73.1667 262.5,74.5C 261.549,73.0813 261.216,71.4147 261.5,69.5C 274.011,69.1714 286.345,69.5048 298.5,70.5 Z"/></g>
<g><path style="opacity:1" fill="#40a8c4" d="M 158.5,70.5 C 175.167,70.5 191.833,70.5 208.5,70.5C 208.5,71.8333 208.5,73.1667 208.5,74.5C 191.833,74.5 175.167,74.5 158.5,74.5C 158.5,73.1667 158.5,71.8333 158.5,70.5 Z"/></g>
<g><path style="opacity:1" fill="#41a8c4" d="M 298.5,70.5 C 298.5,71.8333 298.5,73.1667 298.5,74.5C 286.5,74.5 274.5,74.5 262.5,74.5C 262.5,73.1667 262.5,71.8333 262.5,70.5C 274.5,70.5 286.5,70.5 298.5,70.5 Z"/></g>
<g><path style="opacity:1" fill="#7cc3d6" d="M 158.5,79.5 C 179.327,78.5027 200.327,78.1694 221.5,78.5C 221.784,80.4147 221.451,82.0813 220.5,83.5C 220.5,82.1667 220.5,80.8333 220.5,79.5C 199.833,79.5 179.167,79.5 158.5,79.5 Z"/></g>
<g><path style="opacity:1" fill="#46aac5" d="M 158.5,79.5 C 179.167,79.5 199.833,79.5 220.5,79.5C 220.5,80.8333 220.5,82.1667 220.5,83.5C 199.833,83.5 179.167,83.5 158.5,83.5C 158.5,82.1667 158.5,80.8333 158.5,79.5 Z"/></g>
<g><path style="opacity:1" fill="#4dadc7" d="M 270.5,78.5 C 279.833,78.5 289.167,78.5 298.5,78.5C 298.5,80.1667 298.5,81.8333 298.5,83.5C 289.167,83.5 279.833,83.5 270.5,83.5C 270.5,81.8333 270.5,80.1667 270.5,78.5 Z"/></g>
<g><path style="opacity:1" fill="#8bcadb" d="M 262.5,87.5 C 262.5,88.8333 262.5,90.1667 262.5,91.5C 274.5,91.5 286.5,91.5 298.5,91.5C 286.345,92.4952 274.011,92.8286 261.5,92.5C 261.216,90.5853 261.549,88.9187 262.5,87.5 Z"/></g>
<g><path style="opacity:1" fill="#43a9c4" d="M 208.5,87.5 C 208.5,88.8333 208.5,90.1667 208.5,91.5C 191.833,91.5 175.167,91.5 158.5,91.5C 158.5,90.1667 158.5,88.8333 158.5,87.5C 175.167,87.5 191.833,87.5 208.5,87.5 Z"/></g>
<g><path style="opacity:1" fill="#44a9c5" d="M 262.5,87.5 C 274.5,87.5 286.5,87.5 298.5,87.5C 298.5,88.8333 298.5,90.1667 298.5,91.5C 286.5,91.5 274.5,91.5 262.5,91.5C 262.5,90.1667 262.5,88.8333 262.5,87.5 Z"/></g>
<g><path style="opacity:1" fill="#8ccbdc" d="M 208.5,87.5 C 209.451,88.9187 209.784,90.5853 209.5,92.5C 192.325,92.8299 175.325,92.4966 158.5,91.5C 175.167,91.5 191.833,91.5 208.5,91.5C 208.5,90.1667 208.5,88.8333 208.5,87.5 Z"/></g>
<g><path style="opacity:1" fill="#43a9c4" d="M 158.5,105.5 C 205.167,105.5 251.833,105.5 298.5,105.5C 298.5,132.5 298.5,159.5 298.5,186.5C 251.833,186.5 205.167,186.5 158.5,186.5C 158.5,159.5 158.5,132.5 158.5,105.5 Z"/></g>
<g><path style="opacity:1" fill="#fafcfd" d="M 261.5,119.5 C 272.167,119.5 282.833,119.5 293.5,119.5C 293.5,122.833 293.5,126.167 293.5,129.5C 282.833,129.5 272.167,129.5 261.5,129.5C 261.5,126.167 261.5,122.833 261.5,119.5 Z"/></g>
<g><path style="opacity:1" fill="#cde8ef" d="M 163.5,119.5 C 163.5,122.5 163.5,125.5 163.5,128.5C 182.5,128.5 201.5,128.5 220.5,128.5C 220.5,125.5 220.5,122.5 220.5,119.5C 221.479,122.625 221.813,125.958 221.5,129.5C 201.833,129.5 182.167,129.5 162.5,129.5C 162.187,125.958 162.521,122.625 163.5,119.5 Z"/></g>
<g><path style="opacity:1" fill="#fefffe" d="M 163.5,119.5 C 182.5,119.5 201.5,119.5 220.5,119.5C 220.5,122.5 220.5,125.5 220.5,128.5C 201.5,128.5 182.5,128.5 163.5,128.5C 163.5,125.5 163.5,122.5 163.5,119.5 Z"/></g>
<g><path style="opacity:1" fill="#c9e6ee" d="M 226.5,119.5 C 226.5,122.5 226.5,125.5 226.5,128.5C 236.5,128.5 246.5,128.5 256.5,128.5C 256.5,125.5 256.5,122.5 256.5,119.5C 257.479,122.625 257.813,125.958 257.5,129.5C 246.833,129.5 236.167,129.5 225.5,129.5C 225.187,125.958 225.521,122.625 226.5,119.5 Z"/></g>
<g><path style="opacity:1" fill="#fefffe" d="M 226.5,119.5 C 236.5,119.5 246.5,119.5 256.5,119.5C 256.5,122.5 256.5,125.5 256.5,128.5C 246.5,128.5 236.5,128.5 226.5,128.5C 226.5,125.5 226.5,122.5 226.5,119.5 Z"/></g>
<g><path style="opacity:1" fill="#cde8ef" d="M 162.5,133.5 C 182.167,133.5 201.833,133.5 221.5,133.5C 221.5,136.5 221.5,139.5 221.5,142.5C 201.833,142.5 182.167,142.5 162.5,142.5C 162.5,139.5 162.5,136.5 162.5,133.5 Z"/></g>
<g><path style="opacity:1" fill="#fefffe" d="M 163.5,134.5 C 182.5,134.5 201.5,134.5 220.5,134.5C 220.5,136.833 220.5,139.167 220.5,141.5C 201.5,141.5 182.5,141.5 163.5,141.5C 163.5,139.167 163.5,136.833 163.5,134.5 Z"/></g>
<g><path style="opacity:1" fill="#f4fafb" d="M 261.5,133.5 C 272.167,133.5 282.833,133.5 293.5,133.5C 293.5,136.5 293.5,139.5 293.5,142.5C 282.833,142.5 272.167,142.5 261.5,142.5C 261.5,139.5 261.5,136.5 261.5,133.5 Z"/></g>
<g><path style="opacity:1" fill="#c9e6ee" d="M 225.5,133.5 C 236.167,133.5 246.833,133.5 257.5,133.5C 257.5,136.5 257.5,139.5 257.5,142.5C 246.833,142.5 236.167,142.5 225.5,142.5C 225.5,139.5 225.5,136.5 225.5,133.5 Z"/></g>
<g><path style="opacity:1" fill="#fefffe" d="M 226.5,134.5 C 236.5,134.5 246.5,134.5 256.5,134.5C 256.5,136.833 256.5,139.167 256.5,141.5C 246.5,141.5 236.5,141.5 226.5,141.5C 226.5,139.167 226.5,136.833 226.5,134.5 Z"/></g>
<g><path style="opacity:1" fill="#cde8ef" d="M 220.5,155.5 C 220.5,152.833 220.5,150.167 220.5,147.5C 201.5,147.5 182.5,147.5 163.5,147.5C 163.5,150.167 163.5,152.833 163.5,155.5C 162.523,152.713 162.19,149.713 162.5,146.5C 182.167,146.5 201.833,146.5 221.5,146.5C 221.81,149.713 221.477,152.713 220.5,155.5 Z"/></g>
<g><path style="opacity:1" fill="#c9e6ee" d="M 256.5,155.5 C 256.5,152.833 256.5,150.167 256.5,147.5C 246.5,147.5 236.5,147.5 226.5,147.5C 226.5,150.167 226.5,152.833 226.5,155.5C 225.523,152.713 225.19,149.713 225.5,146.5C 236.167,146.5 246.833,146.5 257.5,146.5C 257.81,149.713 257.477,152.713 256.5,155.5 Z"/></g>
<g><path style="opacity:1" fill="#fefffe" d="M 220.5,155.5 C 201.5,155.5 182.5,155.5 163.5,155.5C 163.5,152.833 163.5,150.167 163.5,147.5C 182.5,147.5 201.5,147.5 220.5,147.5C 220.5,150.167 220.5,152.833 220.5,155.5 Z"/></g>
<g><path style="opacity:1" fill="#fefffe" d="M 256.5,155.5 C 246.5,155.5 236.5,155.5 226.5,155.5C 226.5,152.833 226.5,150.167 226.5,147.5C 236.5,147.5 246.5,147.5 256.5,147.5C 256.5,150.167 256.5,152.833 256.5,155.5 Z"/></g>
<g><path style="opacity:1" fill="#f9fcfd" d="M 261.5,146.5 C 272.167,146.5 282.833,146.5 293.5,146.5C 293.5,149.5 293.5,152.5 293.5,155.5C 282.833,155.5 272.167,155.5 261.5,155.5C 261.5,152.5 261.5,149.5 261.5,146.5 Z"/></g>
<g><path style="opacity:1" fill="#f9fcfd" d="M 261.5,160.5 C 272.167,160.5 282.833,160.5 293.5,160.5C 293.5,163.5 293.5,166.5 293.5,169.5C 282.833,169.5 272.167,169.5 261.5,169.5C 261.5,166.5 261.5,163.5 261.5,160.5 Z"/></g>
<g><path style="opacity:1" fill="#cde8ef" d="M 163.5,160.5 C 163.5,163.167 163.5,165.833 163.5,168.5C 182.5,168.5 201.5,168.5 220.5,168.5C 220.5,165.833 220.5,163.167 220.5,160.5C 221.477,163.287 221.81,166.287 221.5,169.5C 201.833,169.5 182.167,169.5 162.5,169.5C 162.19,166.287 162.523,163.287 163.5,160.5 Z"/></g>
<g><path style="opacity:1" fill="#fefffe" d="M 163.5,160.5 C 182.5,160.5 201.5,160.5 220.5,160.5C 220.5,163.167 220.5,165.833 220.5,168.5C 201.5,168.5 182.5,168.5 163.5,168.5C 163.5,165.833 163.5,163.167 163.5,160.5 Z"/></g>
<g><path style="opacity:1" fill="#c9e6ee" d="M 226.5,160.5 C 226.5,163.167 226.5,165.833 226.5,168.5C 236.5,168.5 246.5,168.5 256.5,168.5C 256.5,165.833 256.5,163.167 256.5,160.5C 257.477,163.287 257.81,166.287 257.5,169.5C 246.833,169.5 236.167,169.5 225.5,169.5C 225.19,166.287 225.523,163.287 226.5,160.5 Z"/></g>
<g><path style="opacity:1" fill="#fefffe" d="M 226.5,160.5 C 236.5,160.5 246.5,160.5 256.5,160.5C 256.5,163.167 256.5,165.833 256.5,168.5C 246.5,168.5 236.5,168.5 226.5,168.5C 226.5,165.833 226.5,163.167 226.5,160.5 Z"/></g>
<g><path style="opacity:1" fill="#cde8ef" d="M 162.5,173.5 C 182.167,173.5 201.833,173.5 221.5,173.5C 221.5,176.5 221.5,179.5 221.5,182.5C 201.833,182.5 182.167,182.5 162.5,182.5C 162.5,179.5 162.5,176.5 162.5,173.5 Z"/></g>
<g><path style="opacity:1" fill="#fefffe" d="M 163.5,174.5 C 182.5,174.5 201.5,174.5 220.5,174.5C 220.5,176.833 220.5,179.167 220.5,181.5C 201.5,181.5 182.5,181.5 163.5,181.5C 163.5,179.167 163.5,176.833 163.5,174.5 Z"/></g>
<g><path style="opacity:1" fill="#f4fafb" d="M 261.5,173.5 C 272.167,173.5 282.833,173.5 293.5,173.5C 293.5,176.5 293.5,179.5 293.5,182.5C 282.833,182.5 272.167,182.5 261.5,182.5C 261.5,179.5 261.5,176.5 261.5,173.5 Z"/></g>
<g><path style="opacity:1" fill="#c9e6ee" d="M 225.5,173.5 C 236.167,173.5 246.833,173.5 257.5,173.5C 257.5,176.5 257.5,179.5 257.5,182.5C 246.833,182.5 236.167,182.5 225.5,182.5C 225.5,179.5 225.5,176.5 225.5,173.5 Z"/></g>
<g><path style="opacity:1" fill="#fefffe" d="M 226.5,174.5 C 236.5,174.5 246.5,174.5 256.5,174.5C 256.5,176.833 256.5,179.167 256.5,181.5C 246.5,181.5 236.5,181.5 226.5,181.5C 226.5,179.167 226.5,176.833 226.5,174.5 Z"/></g>
<g><path style="opacity:1" fill="#72bed3" d="M 234.5,201.5 C 255.833,201.5 277.167,201.5 298.5,201.5C 298.5,203.167 298.5,204.833 298.5,206.5C 277.167,206.5 255.833,206.5 234.5,206.5C 234.5,204.833 234.5,203.167 234.5,201.5 Z"/></g>
<g><path style="opacity:1" fill="#40a8c4" d="M 235.5,202.5 C 256.167,202.5 276.833,202.5 297.5,202.5C 297.5,203.5 297.5,204.5 297.5,205.5C 276.833,205.5 256.167,205.5 235.5,205.5C 235.5,204.5 235.5,203.5 235.5,202.5 Z"/></g>
<g><path style="opacity:1" fill="#42a8c4" d="M 266.5,210.5 C 277.167,210.5 287.833,210.5 298.5,210.5C 298.5,211.833 298.5,213.167 298.5,214.5C 287.833,214.5 277.167,214.5 266.5,214.5C 266.5,213.167 266.5,211.833 266.5,210.5 Z"/></g>
<g><path style="opacity:1" fill="#295b87" d="M 134.5,263.5 C 146.376,261.337 155.376,265.337 161.5,275.5C 159.318,277.294 156.818,278.627 154,279.5C 149.395,271.786 142.895,269.619 134.5,273C 128.304,278.663 126.804,285.497 130,293.5C 134.916,299.615 141.082,301.115 148.5,298C 150.376,295.954 152.376,294.121 154.5,292.5C 157.108,292.923 159.442,293.923 161.5,295.5C 157.406,304.385 150.406,308.385 140.5,307.5C 131.435,307.715 124.935,303.715 121,295.5C 115.999,280.528 120.499,269.862 134.5,263.5 Z"/></g>
<g><path style="opacity:1" fill="#295a86" d="M 428.5,291.5 C 425.038,290.518 421.371,290.185 417.5,290.5C 417.5,288.167 417.5,285.833 417.5,283.5C 424.167,283.5 430.833,283.5 437.5,283.5C 437.5,291.5 437.5,299.5 437.5,307.5C 435.167,307.5 432.833,307.5 430.5,307.5C 430.66,305.801 430.494,304.134 430,302.5C 428.048,304.894 425.548,306.394 422.5,307C 401.591,309.088 392.424,299.588 395,278.5C 400.6,266.116 410.1,261.283 423.5,264C 428.397,265.909 432.397,268.909 435.5,273C 433.301,274.697 430.968,276.197 428.5,277.5C 423.247,271.562 416.914,270.062 409.5,273C 401.568,281.302 401.568,289.635 409.5,298C 414.468,301.232 419.468,301.232 424.5,298C 426.734,296.362 428.067,294.195 428.5,291.5 Z"/></g>
<g><path style="opacity:1" fill="#265985" d="M 22.5,264.5 C 32.8333,264.5 43.1667,264.5 53.5,264.5C 53.6641,267.187 53.4974,269.854 53,272.5C 46.1338,281.067 39.6338,289.9 33.5,299C 40.4921,299.5 47.4921,299.666 54.5,299.5C 54.5,302.167 54.5,304.833 54.5,307.5C 43.8333,307.5 33.1667,307.5 22.5,307.5C 22.3359,304.813 22.5026,302.146 23,299.5C 29.5,290.5 36,281.5 42.5,272.5C 35.8665,271.503 29.1998,271.17 22.5,271.5C 22.5,269.167 22.5,266.833 22.5,264.5 Z"/></g>
<g><path style="opacity:1" fill="#295a86" d="M 80.5,264.5 C 84.7675,264.203 88.9341,264.536 93,265.5C 98.3435,279.365 103.177,293.365 107.5,307.5C 104.5,307.5 101.5,307.5 98.5,307.5C 97.8333,304.5 97.1667,301.5 96.5,298.5C 90.1579,298.334 83.8246,298.5 77.5,299C 76.4067,301.443 75.4067,303.943 74.5,306.5C 71.5719,307.484 68.5719,307.817 65.5,307.5C 70.299,293.103 75.299,278.77 80.5,264.5 Z"/></g>
<g><path style="opacity:1" fill="#6186a6" d="M 185.5,264.5 C 182.833,264.5 180.167,264.5 177.5,264.5C 177.5,278.833 177.5,293.167 177.5,307.5C 176.504,293.01 176.171,278.343 176.5,263.5C 179.713,263.19 182.713,263.523 185.5,264.5 Z"/></g>
<g><path style="opacity:1" fill="#245784" d="M 185.5,264.5 C 185.5,270.167 185.5,275.833 185.5,281.5C 191.833,281.5 198.167,281.5 204.5,281.5C 204.5,275.833 204.5,270.167 204.5,264.5C 207.167,264.5 209.833,264.5 212.5,264.5C 212.5,278.833 212.5,293.167 212.5,307.5C 209.833,307.5 207.167,307.5 204.5,307.5C 204.5,301.5 204.5,295.5 204.5,289.5C 198.167,289.5 191.833,289.5 185.5,289.5C 185.5,295.5 185.5,301.5 185.5,307.5C 182.833,307.5 180.167,307.5 177.5,307.5C 177.5,293.167 177.5,278.833 177.5,264.5C 180.167,264.5 182.833,264.5 185.5,264.5 Z"/></g>
<g><path style="opacity:1" fill="#255884" d="M 242.5,264.5 C 248.443,274.283 254.61,283.95 261,293.5C 261.5,283.839 261.666,274.172 261.5,264.5C 264.5,264.5 267.5,264.5 270.5,264.5C 270.5,278.833 270.5,293.167 270.5,307.5C 266.774,307.823 263.107,307.489 259.5,306.5C 253.806,297.149 248.14,287.816 242.5,278.5C 242.217,277.711 241.717,277.044 241,276.5C 240.5,286.828 240.334,297.161 240.5,307.5C 237.833,307.5 235.167,307.5 232.5,307.5C 232.5,293.167 232.5,278.833 232.5,264.5C 235.833,264.5 239.167,264.5 242.5,264.5 Z"/></g>
<g><path style="opacity:1" fill="#c6d3df" d="M 297.5,264.5 C 294.5,264.5 291.5,264.5 288.5,264.5C 288.5,274.167 288.5,283.833 288.5,293.5C 287.506,283.681 287.173,273.681 287.5,263.5C 291.042,263.187 294.375,263.521 297.5,264.5 Z"/></g>
<g><path style="opacity:1" fill="#285a86" d="M 297.5,264.5 C 297.046,275.603 297.546,286.603 299,297.5C 302.183,299.523 305.683,300.023 309.5,299C 311.607,297.736 312.607,295.903 312.5,293.5C 313.494,284.014 313.827,274.348 313.5,264.5C 316.5,264.5 319.5,264.5 322.5,264.5C 322.667,275.172 322.5,285.839 322,296.5C 320.594,301.573 317.428,305.073 312.5,307C 299.384,310.954 291.384,306.454 288.5,293.5C 288.5,283.833 288.5,274.167 288.5,264.5C 291.5,264.5 294.5,264.5 297.5,264.5 Z"/></g>
<g><path style="opacity:1" fill="#255884" d="M 368.5,293.5 C 368.56,294.043 368.893,294.376 369.5,294.5C 370.499,284.522 370.832,274.522 370.5,264.5C 373.167,264.5 375.833,264.5 378.5,264.5C 378.5,278.833 378.5,293.167 378.5,307.5C 375.15,307.665 371.817,307.498 368.5,307C 362.276,297.616 356.276,288.116 350.5,278.5C 350.217,277.711 349.717,277.044 349,276.5C 348.5,286.828 348.334,297.161 348.5,307.5C 345.833,307.5 343.167,307.5 340.5,307.5C 340.5,293.167 340.5,278.833 340.5,264.5C 344.226,264.177 347.893,264.511 351.5,265.5C 357.221,274.868 362.887,284.201 368.5,293.5 Z"/></g>
<g><path style="opacity:1" fill="#7495b1" d="M 242.5,264.5 C 239.167,264.5 235.833,264.5 232.5,264.5C 232.5,278.833 232.5,293.167 232.5,307.5C 231.504,293.01 231.171,278.343 231.5,263.5C 235.371,263.185 239.038,263.518 242.5,264.5 Z"/></g>
<g><path style="opacity:1" fill="#cad6e1" d="M 322.5,264.5 C 319.5,264.5 316.5,264.5 313.5,264.5C 313.827,274.348 313.494,284.014 312.5,293.5C 312.5,283.5 312.5,273.5 312.5,263.5C 316.042,263.187 319.375,263.521 322.5,264.5 Z"/></g>
<g><path style="opacity:1" fill="#f3f6f8" d="M 85.5,273.5 C 86.7498,273.577 87.5831,274.244 88,275.5C 89.8102,280.429 91.3102,285.429 92.5,290.5C 88.5,290.5 84.5,290.5 80.5,290.5C 82.3651,284.903 84.0318,279.237 85.5,273.5 Z"/></g>
<g><path style="opacity:1" fill="#7d9bb6" d="M 350.5,278.5 C 349.833,288.167 349.167,297.833 348.5,307.5C 348.334,297.161 348.5,286.828 349,276.5C 349.717,277.044 350.217,277.711 350.5,278.5 Z"/></g>
<g><path style="opacity:1" fill="#688baa" d="M 378.5,264.5 C 375.833,264.5 373.167,264.5 370.5,264.5C 370.832,274.522 370.499,284.522 369.5,294.5C 368.893,294.376 368.56,294.043 368.5,293.5C 369.494,283.681 369.827,273.681 369.5,263.5C 372.713,263.19 375.713,263.523 378.5,264.5 Z"/></g>
<g><path style="opacity:1" fill="#6e90ae" d="M 204.5,264.5 C 207.287,263.523 210.287,263.19 213.5,263.5C 213.829,278.343 213.496,293.01 212.5,307.5C 212.5,293.167 212.5,278.833 212.5,264.5C 209.833,264.5 207.167,264.5 204.5,264.5 Z"/></g>
<g><path style="opacity:1" fill="#b4c6d4" d="M 242.5,278.5 C 241.833,288.167 241.167,297.833 240.5,307.5C 240.334,297.161 240.5,286.828 241,276.5C 241.717,277.044 242.217,277.711 242.5,278.5 Z"/></g>
<g><path style="opacity:1" fill="#97b0c4" d="M 417.5,283.5 C 417.5,285.833 417.5,288.167 417.5,290.5C 421.371,290.185 425.038,290.518 428.5,291.5C 424.5,291.5 420.5,291.5 416.5,291.5C 416.194,288.615 416.527,285.948 417.5,283.5 Z"/></g>
<g><path style="opacity:1" fill="#54afc9" d="M 93.5,332.5 C 94.675,332.281 95.675,332.614 96.5,333.5C 99.1067,338.38 101.44,343.38 103.5,348.5C 103,348.833 102.5,349.167 102,349.5C 97.045,346.682 92.3783,347.015 88,350.5C 87.5,350.167 87,349.833 86.5,349.5C 89.6905,344.128 92.0239,338.461 93.5,332.5 Z"/></g>
<g><path style="opacity:1" fill="#58b1ca" d="M 111.5,332.5 C 115.544,331.958 119.211,332.791 122.5,335C 121.975,335.692 121.308,336.192 120.5,336.5C 112.311,333.011 108.811,335.678 110,344.5C 113.39,348.032 117.057,348.366 121,345.5C 122.489,346.424 122.656,347.424 121.5,348.5C 111.095,352.267 106.262,348.6 107,337.5C 108.366,335.638 109.866,333.972 111.5,332.5 Z"/></g>
<g><path style="opacity:1" fill="#55b0c9" d="M 283.5,332.5 C 287.544,331.958 291.211,332.791 294.5,335C 293.975,335.692 293.308,336.192 292.5,336.5C 285.098,333.114 281.265,335.448 281,343.5C 284.386,347.888 288.386,348.555 293,345.5C 293.5,346 294,346.5 294.5,347C 288.338,352.167 283.172,351.334 279,344.5C 277.474,339.239 278.974,335.239 283.5,332.5 Z"/></g>
<g><path style="opacity:1" fill="#62b5cd" d="M 64.5,332.5 C 65.552,332.351 66.552,332.517 67.5,333C 69.4945,335.827 71.8278,338.327 74.5,340.5C 76.7081,337.946 79.0414,335.446 81.5,333C 82.5,332.333 83.5,332.333 84.5,333C 83.6911,338.417 83.1911,343.917 83,349.5C 82.586,349.957 82.086,350.291 81.5,350.5C 80.6735,346.541 80.1735,342.541 80,338.5C 78.3903,340.731 76.557,342.731 74.5,344.5C 72.1421,342.976 70.3088,340.976 69,338.5C 68.8265,342.541 68.3265,346.541 67.5,350.5C 67.1667,350.333 66.8333,350.167 66.5,350C 65.7677,344.201 65.101,338.368 64.5,332.5 Z"/></g>
<g><path style="opacity:1" fill="#54b0c9" d="M 141.5,332.5 C 142.117,338.598 141.45,344.265 139.5,349.5C 139.5,347.167 139.5,344.833 139.5,342.5C 136.167,342.5 132.833,342.5 129.5,342.5C 129.5,345.167 129.5,347.833 129.5,350.5C 128.5,350.5 127.5,350.5 126.5,350.5C 126.5,344.5 126.5,338.5 126.5,332.5C 127.5,332.5 128.5,332.5 129.5,332.5C 129.5,334.833 129.5,337.167 129.5,339.5C 132.833,339.5 136.167,339.5 139.5,339.5C 138.99,336.612 139.656,334.279 141.5,332.5 Z"/></g>
<g><path style="opacity:1" fill="#55b0c9" d="M 152.5,332.5 C 156.967,332.133 161.3,332.633 165.5,334C 169.996,340.033 169.329,345.367 163.5,350C 160.518,350.498 157.518,350.665 154.5,350.5C 154.876,344.328 154.209,338.328 152.5,332.5 Z"/></g>
<g><path style="opacity:1" fill="#45aac5" d="M 175.5,335.5 C 175.34,337.199 175.506,338.866 176,340.5C 178.041,339.577 180.208,339.244 182.5,339.5C 182.5,340.5 182.5,341.5 182.5,342.5C 180.167,342.5 177.833,342.5 175.5,342.5C 175.5,344.167 175.5,345.833 175.5,347.5C 179.649,346.92 183.316,347.586 186.5,349.5C 182.167,349.5 177.833,349.5 173.5,349.5C 173.5,344.167 173.5,338.833 173.5,333.5C 177.182,333.335 180.848,333.501 184.5,334C 181.305,334.181 178.305,334.681 175.5,335.5 Z"/></g>
<g><path style="opacity:1" fill="#43a9c4" d="M 192.5,332.5 C 193.117,338.598 192.45,344.265 190.5,349.5C 189.883,343.402 190.55,337.735 192.5,332.5 Z"/></g>
<g><path style="opacity:1" fill="#bbe0e9" d="M 192.5,332.5 C 193.49,338.31 193.823,344.31 193.5,350.5C 192.209,350.737 191.209,350.404 190.5,349.5C 192.45,344.265 193.117,338.598 192.5,332.5 Z"/></g>
<g><path style="opacity:1" fill="#5cb3cb" d="M 196.5,333.5 C 197.708,332.218 199.042,332.218 200.5,333.5C 203.667,337.167 206.833,340.833 210,344.5C 210.499,340.514 210.666,336.514 210.5,332.5C 211.5,332.5 212.5,332.5 213.5,332.5C 213.5,338.5 213.5,344.5 213.5,350.5C 208.94,347.777 205.107,344.111 202,339.5C 201.501,343.152 201.335,346.818 201.5,350.5C 200.5,350.5 199.5,350.5 198.5,350.5C 198.666,345.156 198.499,339.823 198,334.5C 197.617,333.944 197.117,333.611 196.5,333.5 Z"/></g>
<g><path style="opacity:1" fill="#5ab2cb" d="M 218.5,332.5 C 222.833,332.5 227.167,332.5 231.5,332.5C 231.5,333.5 231.5,334.5 231.5,335.5C 228.167,335.5 224.833,335.5 221.5,335.5C 221.5,336.833 221.5,338.167 221.5,339.5C 223.833,339.5 226.167,339.5 228.5,339.5C 228.5,340.5 228.5,341.5 228.5,342.5C 226.167,342.5 223.833,342.5 221.5,342.5C 221.5,344.167 221.5,345.833 221.5,347.5C 225.167,347.5 228.833,347.5 232.5,347.5C 232.5,348.5 232.5,349.5 232.5,350.5C 227.833,350.5 223.167,350.5 218.5,350.5C 218.5,344.5 218.5,338.5 218.5,332.5 Z"/></g>
<g><path style="opacity:1" fill="#52afc8" d="M 242.5,332.5 C 246.514,332.334 250.514,332.501 254.5,333C 257.296,336.741 256.963,340.241 253.5,343.5C 254.124,345.754 255.457,347.421 257.5,348.5C 256.277,349.614 254.944,349.781 253.5,349C 249.286,340.222 245.953,340.388 243.5,349.5C 242.505,343.872 242.171,338.206 242.5,332.5 Z"/></g>
<g><path style="opacity:1" fill="#45aac5" d="M 264.5,335.5 C 264.34,337.199 264.506,338.866 265,340.5C 267.041,339.577 269.208,339.244 271.5,339.5C 271.5,340.5 271.5,341.5 271.5,342.5C 269.167,342.5 266.833,342.5 264.5,342.5C 264.5,344.167 264.5,345.833 264.5,347.5C 268.649,346.92 272.316,347.586 275.5,349.5C 271.167,349.5 266.833,349.5 262.5,349.5C 262.5,344.167 262.5,338.833 262.5,333.5C 266.182,333.335 269.848,333.501 273.5,334C 270.305,334.181 267.305,334.681 264.5,335.5 Z"/></g>
<g><path style="opacity:1" fill="#59b1ca" d="M 298.5,332.5 C 299.5,332.5 300.5,332.5 301.5,332.5C 301.5,334.833 301.5,337.167 301.5,339.5C 304.833,339.5 308.167,339.5 311.5,339.5C 311.192,337.076 311.526,334.743 312.5,332.5C 313.833,338.167 313.833,343.833 312.5,349.5C 311.526,347.257 311.192,344.924 311.5,342.5C 308.167,342.5 304.833,342.5 301.5,342.5C 301.5,345.167 301.5,347.833 301.5,350.5C 300.5,350.5 299.5,350.5 298.5,350.5C 298.5,344.5 298.5,338.5 298.5,332.5 Z"/></g>
<g><path style="opacity:1" fill="#5bb2cb" d="M 317.5,333.5 C 318.708,332.218 320.042,332.218 321.5,333.5C 324.667,337.167 327.833,340.833 331,344.5C 331.499,340.514 331.666,336.514 331.5,332.5C 332.5,332.5 333.5,332.5 334.5,332.5C 334.5,338.5 334.5,344.5 334.5,350.5C 329.94,347.777 326.107,344.111 323,339.5C 322.667,342.833 322.333,346.167 322,349.5C 321.586,349.957 321.086,350.291 320.5,350.5C 319.671,345.198 319.171,339.864 319,334.5C 318.617,333.944 318.117,333.611 317.5,333.5 Z"/></g>
<g><path style="opacity:1" fill="#60b4cc" d="M 339.5,332.5 C 340.5,332.5 341.5,332.5 342.5,332.5C 342.334,337.179 342.501,341.845 343,346.5C 346.24,348.036 349.24,347.703 352,345.5C 352.499,341.179 352.666,336.846 352.5,332.5C 353.5,332.5 354.5,332.5 355.5,332.5C 355.666,336.846 355.499,341.179 355,345.5C 351.634,350.609 347.134,351.776 341.5,349C 340.874,348.25 340.374,347.416 340,346.5C 339.501,341.845 339.334,337.179 339.5,332.5 Z"/></g>
<g><path style="opacity:1" fill="#5cb2cb" d="M 358.5,333.5 C 359.708,332.218 361.042,332.218 362.5,333.5C 365.667,337.167 368.833,340.833 372,344.5C 372.499,340.514 372.666,336.514 372.5,332.5C 373.5,332.5 374.5,332.5 375.5,332.5C 375.5,338.5 375.5,344.5 375.5,350.5C 370.94,347.777 367.107,344.111 364,339.5C 363.667,342.833 363.333,346.167 363,349.5C 362.586,349.957 362.086,350.291 361.5,350.5C 360.671,345.198 360.171,339.864 360,334.5C 359.617,333.944 359.117,333.611 358.5,333.5 Z"/></g>
<g><path style="opacity:1" fill="#81c5d8" d="M 175.5,335.5 C 178.305,334.681 181.305,334.181 184.5,334C 180.848,333.501 177.182,333.335 173.5,333.5C 173.5,338.833 173.5,344.167 173.5,349.5C 177.833,349.5 182.167,349.5 186.5,349.5C 182.03,350.486 177.363,350.819 172.5,350.5C 172.5,344.5 172.5,338.5 172.5,332.5C 176.833,332.5 181.167,332.5 185.5,332.5C 185.5,333.5 185.5,334.5 185.5,335.5C 182.167,335.5 178.833,335.5 175.5,335.5 Z"/></g>
<g><path style="opacity:1" fill="#85c7d9" d="M 264.5,335.5 C 267.305,334.681 270.305,334.181 273.5,334C 269.848,333.501 266.182,333.335 262.5,333.5C 262.5,338.833 262.5,344.167 262.5,349.5C 266.833,349.5 271.167,349.5 275.5,349.5C 271.03,350.486 266.363,350.819 261.5,350.5C 261.5,344.5 261.5,338.5 261.5,332.5C 265.833,332.5 270.167,332.5 274.5,332.5C 274.5,333.5 274.5,334.5 274.5,335.5C 271.167,335.5 267.833,335.5 264.5,335.5 Z"/></g>
<g><path style="opacity:1" fill="#f4fafb" d="M 156.5,335.5 C 166.267,335.073 168.6,338.906 163.5,347C 161.19,347.497 158.857,347.663 156.5,347.5C 156.5,343.5 156.5,339.5 156.5,335.5 Z"/></g>
<g><path style="opacity:1" fill="#f6fbfc" d="M 245.5,335.5 C 248.187,335.336 250.854,335.503 253.5,336C 254.833,337.333 254.833,338.667 253.5,340C 250.854,340.497 248.187,340.664 245.5,340.5C 245.5,338.833 245.5,337.167 245.5,335.5 Z"/></g>
<g><path style="opacity:1" fill="#5cb3cb" d="M 384.5,332.5 C 388.544,331.958 392.211,332.791 395.5,335C 394.975,335.692 394.308,336.192 393.5,336.5C 385.071,333.112 381.571,335.779 383,344.5C 385.559,347.349 388.726,348.183 392.5,347C 393.022,346.439 393.355,345.772 393.5,345C 389.485,341.377 390.485,339.877 396.5,340.5C 397.931,347.072 395.264,350.406 388.5,350.5C 381.212,349.181 378.379,344.847 380,337.5C 381.707,335.963 383.207,334.296 384.5,332.5 Z"/></g>
<g><path style="opacity:1" fill="#e6f3f7" d="M 94.5,338.5 C 97.1119,340.052 98.4452,342.386 98.5,345.5C 96.1432,345.663 93.8098,345.497 91.5,345C 92.914,343.007 93.914,340.84 94.5,338.5 Z"/></g>
<g><path style="opacity:1" fill="#afdae6" d="M 141.5,332.5 C 142.49,338.31 142.823,344.31 142.5,350.5C 141.209,350.737 140.209,350.404 139.5,349.5C 141.45,344.265 142.117,338.598 141.5,332.5 Z"/></g>
</svg>
